<?xml version="1.0" standalone="no"?>
<!DOCTYPE svg PUBLIC "-//W3C//DTD SVG 20010904//EN"
 "http://www.w3.org/TR/2001/REC-SVG-20010904/DTD/svg10.dtd">
<svg version="1.0" xmlns="http://www.w3.org/2000/svg"
 width="2835.000000pt" height="2835.000000pt" viewBox="0 0 2835.000000 2835.000000"
 preserveAspectRatio="xMidYMid meet">
<metadata>
Created by potrace 1.11, written by Peter Selinger 2001-2013
</metadata>
<g transform="translate(0.000000,2835.000000) scale(0.100000,-0.100000)"
fill="#000000" stroke="none">
<path d="M13578 26925 c-1 -1 -64 -5 -138 -9 -74 -3 -157 -8 -185 -11 -27 -2
-79 -7 -115 -10 -155 -14 -177 -16 -210 -20 -19 -3 -60 -7 -90 -11 -78 -9 -99
-11 -155 -18 -27 -3 -82 -8 -122 -11 -40 -2 -85 -7 -100 -9 -15 -3 -86 -14
-158 -26 -71 -11 -164 -27 -205 -35 -41 -9 -99 -17 -129 -20 -55 -5 -136 -20
-296 -56 -49 -12 -126 -27 -170 -34 -82 -14 -99 -18 -245 -55 -47 -11 -116
-28 -155 -36 -68 -14 -92 -20 -240 -64 -38 -11 -85 -23 -105 -25 -19 -3 -46
-9 -60 -14 -14 -5 -79 -26 -145 -46 -289 -87 -507 -158 -571 -186 -23 -10 -56
-21 -73 -24 -18 -3 -74 -23 -124 -44 -51 -21 -105 -41 -122 -45 -16 -4 -43
-13 -60 -20 -92 -40 -153 -65 -175 -71 -14 -4 -50 -18 -80 -32 -106 -48 -115
-51 -140 -58 -14 -4 -55 -22 -92 -40 -36 -18 -77 -36 -90 -40 -13 -4 -68 -29
-123 -55 -55 -25 -116 -53 -135 -60 -19 -8 -61 -29 -93 -47 -33 -18 -63 -33
-68 -33 -9 0 -156 -72 -219 -107 -14 -8 -63 -33 -110 -57 -47 -24 -128 -67
-180 -96 -52 -29 -133 -73 -180 -97 -47 -25 -90 -51 -96 -59 -6 -8 -25 -19
-43 -25 -17 -6 -61 -31 -98 -55 -37 -24 -71 -44 -77 -44 -5 0 -23 -11 -41 -24
-17 -13 -66 -44 -108 -69 -42 -25 -82 -51 -89 -57 -7 -6 -27 -19 -44 -28 -44
-24 -148 -92 -196 -127 -23 -16 -56 -39 -74 -50 -81 -50 -234 -157 -234 -165
0 -4 -10 -10 -23 -14 -13 -3 -36 -17 -51 -31 -15 -14 -40 -33 -54 -43 -46 -30
-196 -141 -222 -166 -14 -12 -37 -29 -50 -36 -14 -7 -41 -28 -60 -47 -19 -18
-38 -33 -41 -33 -4 0 -14 -6 -21 -13 -7 -6 -42 -35 -77 -62 -71 -56 -152 -123
-192 -159 -15 -12 -40 -33 -57 -44 -16 -12 -45 -36 -64 -54 -19 -18 -57 -52
-84 -75 -42 -36 -80 -68 -154 -133 -49 -43 -235 -216 -312 -290 -127 -123
-148 -144 -211 -209 -17 -18 -38 -38 -45 -45 -7 -6 -29 -28 -50 -49 -20 -21
-68 -71 -107 -110 -38 -40 -119 -126 -179 -192 -180 -197 -188 -206 -334 -379
-24 -28 -59 -68 -78 -89 -19 -21 -40 -49 -46 -63 -6 -13 -15 -24 -19 -24 -4 0
-38 -39 -75 -87 -38 -49 -71 -90 -74 -93 -3 -3 -21 -26 -40 -52 -18 -27 -37
-48 -41 -48 -4 0 -10 -9 -14 -19 -3 -11 -19 -34 -36 -53 -16 -18 -45 -55 -64
-83 -19 -27 -61 -86 -94 -130 -60 -80 -147 -202 -166 -233 -5 -9 -28 -41 -51
-72 -23 -30 -48 -68 -57 -85 -8 -16 -25 -41 -37 -55 -12 -14 -28 -37 -36 -52
-21 -40 -77 -123 -86 -126 -4 -2 -8 -9 -8 -15 0 -6 -21 -44 -48 -85 -26 -40
-66 -102 -89 -138 -23 -36 -45 -75 -49 -87 -4 -12 -9 -24 -13 -27 -8 -7 -51
-68 -51 -74 0 -2 -16 -33 -37 -68 -57 -99 -122 -216 -166 -298 -22 -41 -50
-91 -63 -110 -13 -19 -24 -40 -24 -46 0 -6 -11 -31 -24 -55 -14 -24 -59 -114
-102 -199 -42 -85 -94 -190 -116 -232 -21 -43 -37 -78 -34 -78 2 0 -12 -33
-33 -72 -21 -40 -42 -84 -46 -98 -4 -14 -25 -62 -46 -108 -21 -46 -46 -104
-54 -129 -9 -25 -28 -71 -44 -102 -16 -32 -34 -75 -41 -97 -6 -21 -32 -87 -56
-145 -24 -59 -44 -112 -44 -119 0 -7 -7 -26 -15 -43 -24 -53 -56 -139 -72
-192 -8 -27 -28 -84 -44 -125 -16 -41 -38 -106 -48 -145 -11 -38 -33 -108 -50
-154 -16 -46 -32 -96 -35 -111 -2 -15 -18 -70 -34 -121 -17 -52 -40 -132 -52
-179 -12 -47 -36 -137 -55 -200 -18 -63 -36 -133 -39 -155 -4 -22 -24 -110
-46 -195 -21 -85 -42 -175 -45 -200 -11 -80 -15 -104 -25 -135 -5 -16 -12 -43
-15 -60 -8 -49 -14 -75 -20 -95 -3 -10 -7 -32 -10 -49 -2 -17 -6 -38 -9 -48
-3 -10 -8 -45 -11 -78 -2 -33 -11 -94 -19 -135 -9 -41 -17 -88 -19 -105 -3
-16 -8 -46 -11 -65 -24 -139 -34 -215 -41 -305 -4 -44 -8 -93 -11 -110 -2 -16
-6 -55 -9 -85 -4 -30 -8 -65 -10 -76 -7 -48 -23 -202 -31 -314 -3 -41 -7 -86
-10 -100 -27 -163 -27 -1567 0 -1835 5 -51 16 -165 21 -230 5 -53 13 -128 20
-185 3 -19 7 -55 10 -80 2 -25 6 -61 9 -80 3 -19 8 -67 11 -107 7 -101 33
-271 81 -533 2 -14 7 -49 10 -79 3 -30 14 -98 25 -150 11 -53 23 -107 25 -121
3 -14 11 -52 19 -85 8 -33 17 -80 20 -105 10 -71 112 -492 150 -620 9 -30 22
-82 30 -115 7 -33 27 -103 44 -155 17 -52 41 -135 55 -185 13 -49 34 -115 46
-145 12 -30 27 -77 34 -105 7 -27 30 -95 51 -150 20 -55 40 -113 42 -130 3
-16 8 -32 11 -35 10 -7 50 -106 73 -176 10 -34 31 -88 45 -120 14 -33 39 -93
54 -134 45 -117 108 -269 141 -335 16 -33 31 -69 33 -81 2 -11 23 -55 45 -98
23 -43 41 -83 41 -87 0 -9 34 -82 57 -124 7 -11 48 -96 94 -190 45 -93 90
-181 100 -194 11 -13 19 -29 19 -36 0 -7 16 -42 36 -77 33 -57 65 -115 144
-264 15 -28 40 -71 56 -95 16 -24 36 -61 46 -82 9 -20 28 -52 41 -70 23 -30
77 -121 123 -206 11 -21 26 -44 32 -52 18 -21 60 -85 78 -120 8 -17 31 -51 50
-76 19 -24 34 -51 34 -59 0 -8 4 -14 8 -14 5 0 18 -18 31 -40 12 -22 26 -40
32 -40 5 0 9 -6 9 -14 0 -8 17 -36 38 -63 22 -27 45 -60 52 -73 7 -14 33 -51
57 -82 23 -31 43 -59 43 -63 0 -3 20 -31 45 -62 25 -30 45 -58 45 -62 0 -5 12
-21 26 -37 14 -16 33 -40 42 -54 16 -24 135 -181 197 -260 17 -21 46 -58 65
-83 95 -121 184 -227 190 -227 4 0 11 -9 16 -20 10 -21 67 -88 130 -153 22
-23 43 -47 45 -53 2 -7 42 -54 89 -105 47 -51 108 -117 135 -148 146 -160 692
-698 855 -841 29 -25 71 -63 96 -85 67 -61 188 -166 250 -215 70 -56 191 -157
199 -165 6 -6 29 -24 53 -39 23 -16 42 -32 42 -36 0 -5 20 -20 45 -34 25 -15
45 -30 45 -34 0 -4 17 -18 38 -32 20 -13 51 -36 68 -50 17 -14 40 -33 52 -42
11 -9 29 -21 39 -27 11 -5 41 -28 68 -50 27 -23 54 -41 58 -41 5 0 29 -18 54
-40 25 -22 50 -40 55 -40 5 0 37 -22 71 -49 35 -26 72 -51 83 -55 11 -3 37
-22 58 -41 21 -19 45 -35 52 -35 8 0 22 -9 31 -20 10 -11 21 -20 25 -20 4 0
49 -28 100 -62 110 -74 198 -128 208 -128 4 0 15 -9 25 -20 10 -11 27 -22 38
-26 12 -4 46 -24 77 -44 30 -21 78 -49 107 -64 28 -14 54 -30 57 -35 3 -5 38
-25 77 -45 39 -20 83 -45 97 -56 13 -11 30 -20 36 -20 6 0 43 -20 82 -44 38
-24 80 -47 92 -50 12 -4 50 -24 85 -45 34 -20 78 -43 97 -51 19 -7 46 -21 60
-30 14 -9 48 -27 75 -40 85 -40 98 -46 158 -79 31 -17 57 -29 57 -26 0 3 43
-17 96 -45 53 -27 100 -50 105 -50 5 0 45 -18 88 -39 44 -22 90 -42 103 -46
13 -4 60 -24 105 -46 45 -21 87 -39 92 -39 6 0 56 -20 111 -45 54 -24 114 -47
132 -50 18 -3 37 -10 43 -14 12 -10 142 -62 200 -81 22 -7 54 -19 71 -26 36
-17 363 -131 414 -145 19 -5 91 -27 160 -49 173 -55 388 -118 430 -125 49 -9
48 -9 115 -29 76 -23 73 -22 175 -46 47 -11 161 -39 253 -61 93 -23 183 -42
200 -44 26 -2 82 -12 117 -20 3 -1 23 -5 45 -10 60 -12 63 -12 165 -34 52 -11
122 -22 155 -26 33 -3 67 -8 75 -10 8 -2 33 -6 55 -10 22 -3 94 -14 160 -25
180 -29 232 -36 350 -45 39 -3 108 -10 155 -16 114 -13 173 -19 345 -34 17 -2
77 -7 135 -11 58 -4 121 -8 140 -9 351 -26 1133 -25 1458 0 26 2 90 7 142 10
52 4 109 8 125 10 17 2 71 7 120 11 50 3 92 8 95 9 3 2 42 6 85 10 44 3 87 8
95 11 8 2 56 6 105 9 50 3 101 8 115 10 14 2 45 6 70 10 88 13 128 19 220 35
30 5 71 12 90 15 19 3 46 7 60 10 14 2 52 7 85 10 33 3 67 8 75 10 8 2 29 7
45 9 17 3 73 15 125 26 178 38 195 42 236 46 23 2 111 22 195 43 85 22 174 42
199 46 42 6 152 35 260 70 25 7 64 17 88 20 23 4 90 22 149 41 58 19 120 37
139 40 18 3 90 25 159 49 69 24 125 42 125 40 0 -4 132 40 165 55 29 13 114
40 126 40 6 0 25 6 42 14 45 21 158 63 187 71 28 7 33 9 138 54 40 17 78 31
85 31 6 0 57 20 112 45 55 25 102 45 106 45 4 0 24 8 45 17 22 9 41 17 44 18
3 1 35 16 72 33 37 18 72 32 78 32 6 0 46 18 89 41 43 22 85 41 93 43 13 2
150 66 263 124 59 30 80 41 160 80 33 16 74 36 90 45 17 9 44 22 60 30 17 8
48 24 70 37 22 12 74 41 115 63 111 60 175 95 289 162 56 33 124 71 149 85 26
14 72 42 102 62 30 19 60 37 65 39 6 2 37 22 70 43 33 21 89 58 125 81 36 23
118 78 183 121 66 44 136 90 157 104 44 28 94 64 187 133 35 26 77 54 93 62
16 8 33 21 37 29 4 8 26 24 48 37 22 13 45 29 50 35 10 12 133 105 208 159 23
16 50 39 59 51 10 12 31 27 48 34 16 7 30 16 30 20 0 4 28 29 63 56 34 26 64
51 67 54 3 3 23 20 45 38 22 19 60 50 84 70 43 37 112 96 204 176 26 22 66 60
89 84 22 23 44 42 48 42 19 0 603 576 770 759 52 57 113 124 135 147 42 45
119 131 145 162 28 34 135 157 140 162 3 3 17 21 31 40 15 19 40 49 55 65 16
17 40 47 54 68 14 20 28 37 32 37 4 0 18 17 31 38 14 20 38 52 55 70 17 18 34
42 37 53 4 10 10 19 15 19 8 0 119 144 170 221 14 20 37 51 51 67 15 16 30 39
34 51 3 11 10 21 14 21 4 0 34 38 65 84 31 46 66 92 76 101 11 10 20 26 20 35
0 10 7 23 15 30 17 14 138 191 170 249 11 20 25 42 32 49 14 14 109 166 138
220 11 20 23 39 26 42 10 9 79 120 79 128 0 4 14 27 31 52 16 25 44 72 61 105
16 33 36 67 43 75 7 8 32 52 55 98 24 45 49 87 56 93 8 6 14 17 14 23 0 6 7
25 16 41 33 60 122 231 148 285 15 30 33 66 41 80 53 100 255 530 255 544 0 5
17 45 39 90 21 44 44 99 51 121 13 38 35 90 66 147 8 14 14 34 14 44 0 10 8
36 18 58 10 23 27 59 36 81 10 22 28 72 41 110 12 39 36 99 52 135 16 36 33
79 37 95 4 17 26 86 50 155 60 172 123 369 131 405 3 17 24 86 45 155 22 69
42 139 44 155 3 17 23 95 45 175 32 115 93 365 96 390 1 3 8 37 17 75 9 39 24
111 33 160 23 131 24 135 31 157 3 11 7 30 9 41 2 12 10 56 18 97 9 41 18 100
21 130 7 59 16 123 22 155 2 11 6 34 9 50 3 17 7 41 10 55 2 14 7 43 10 65 3
23 7 52 10 65 4 23 9 57 20 140 2 19 7 62 9 95 10 109 17 190 21 215 7 45 18
167 29 305 4 44 9 100 11 125 2 25 7 97 11 160 3 63 8 144 10 180 4 81 4 1014
-1 1090 -1 30 -6 105 -9 165 -4 61 -8 130 -11 155 -2 25 -7 79 -10 120 -11
131 -16 184 -20 210 -2 14 -7 59 -10 100 -4 41 -9 77 -10 80 -2 3 -6 51 -9
105 -4 55 -8 111 -10 125 -3 14 -12 75 -21 135 -18 119 -22 147 -30 185 -2 13
-7 40 -10 60 -3 20 -7 46 -9 57 -3 12 -7 48 -11 80 -7 65 -14 110 -20 133 -2
8 -7 31 -10 50 -3 19 -17 85 -30 145 -13 61 -27 133 -31 160 -9 60 -3 33 -53
245 -23 96 -49 207 -58 245 -9 39 -18 74 -22 80 -3 5 -6 16 -8 25 -8 44 -50
200 -85 313 -22 70 -42 141 -44 156 -3 16 -21 73 -40 127 -20 55 -42 124 -49
154 -8 30 -28 91 -45 135 -17 44 -38 105 -46 135 -8 30 -26 82 -41 115 -30 71
-34 82 -58 155 -10 30 -30 82 -45 115 -15 33 -30 72 -34 88 -3 15 -18 53 -32
85 -44 97 -52 116 -60 142 -4 14 -20 52 -36 85 -16 33 -42 92 -58 132 -16 40
-41 94 -55 120 -14 26 -25 51 -25 56 0 8 -98 217 -127 272 -24 44 -58 114 -79
160 -10 22 -21 42 -24 45 -4 3 -25 43 -48 90 -63 127 -126 243 -149 276 -11
16 -24 40 -28 54 -4 14 -13 32 -20 40 -7 8 -21 30 -31 49 -74 135 -270 458
-289 477 -7 8 -17 24 -20 35 -4 12 -23 42 -42 68 -19 25 -39 54 -44 66 -4 11
-22 38 -38 60 -17 22 -40 58 -52 80 -12 22 -25 42 -29 45 -4 3 -35 46 -67 95
-33 50 -67 96 -76 104 -10 7 -17 19 -17 26 0 7 -10 23 -22 36 -31 33 -63 82
-60 92 1 4 -2 7 -8 7 -5 0 -21 17 -35 38 -43 63 -99 138 -117 156 -10 10 -18
21 -18 26 0 5 -20 32 -44 59 -24 27 -47 59 -51 70 -3 12 -10 21 -14 21 -5 0
-28 26 -52 58 -24 31 -48 62 -54 68 -5 6 -23 28 -40 49 -71 90 -184 221 -249
292 -27 29 -46 53 -42 53 4 0 -8 15 -26 33 -18 18 -67 70 -108 116 -41 46 -97
109 -125 139 -70 78 -577 584 -655 655 -36 32 -87 80 -115 105 -27 26 -81 74
-119 107 -38 33 -86 74 -105 92 -20 17 -63 54 -96 82 -33 28 -79 67 -102 88
-23 20 -50 41 -60 46 -10 6 -21 15 -25 22 -4 6 -42 38 -85 70 -43 32 -82 63
-88 69 -5 6 -29 24 -52 40 -24 16 -43 32 -43 36 0 4 -21 21 -47 38 -47 31
-115 80 -142 103 -31 27 -99 76 -133 98 -21 12 -38 27 -38 32 0 5 -22 20 -50
34 -27 14 -50 29 -50 33 0 4 -28 25 -63 46 -34 22 -80 54 -101 70 -22 17 -52
38 -67 46 -15 8 -79 50 -142 93 -64 42 -124 80 -134 84 -10 4 -28 16 -40 28
-13 11 -40 29 -60 40 -21 10 -63 35 -93 55 -53 35 -151 93 -228 135 -20 12
-56 33 -79 48 -24 15 -47 27 -52 27 -5 0 -11 3 -13 8 -1 4 -23 17 -48 30 -25
12 -85 45 -135 72 -224 125 -842 430 -923 455 -13 4 -59 24 -103 46 -43 21
-84 39 -89 39 -6 0 -31 9 -56 20 -24 11 -64 29 -88 40 -24 11 -66 27 -92 36
-27 9 -67 24 -89 34 -22 10 -65 27 -95 38 -30 11 -102 38 -160 60 -58 22 -116
43 -130 47 -28 7 -111 37 -181 66 -25 10 -61 21 -80 24 -19 3 -77 21 -129 40
-99 35 -125 43 -159 50 -11 2 -78 22 -148 43 -71 22 -162 48 -203 57 -41 9
-81 22 -87 27 -7 6 -13 8 -13 5 0 -3 -15 -1 -32 4 -74 23 -135 39 -173 45 -22
3 -107 23 -190 44 -82 22 -170 42 -195 45 -25 3 -126 23 -225 45 -99 21 -203
41 -231 44 -28 3 -106 15 -175 26 -68 12 -137 24 -154 27 -16 2 -68 10 -115
18 -47 8 -121 17 -165 20 -44 3 -114 10 -155 15 -86 10 -151 18 -215 25 -25 3
-64 7 -87 10 -24 3 -72 7 -108 10 -36 3 -96 8 -135 11 -38 3 -99 8 -135 11
-70 5 -1366 13 -1372 8z m1097 -3409 c37 -4 123 -10 315 -21 90 -6 208 -16
234 -21 10 -2 44 -6 75 -10 31 -3 63 -8 73 -9 9 -2 38 -7 65 -11 26 -3 57 -8
68 -10 51 -10 145 -24 200 -29 64 -7 145 -22 320 -60 61 -13 128 -27 150 -30
22 -3 58 -10 80 -16 22 -6 47 -12 55 -14 57 -12 288 -73 400 -106 74 -22 147
-42 161 -44 15 -3 83 -25 153 -50 70 -25 137 -45 150 -45 12 0 26 -4 31 -9 6
-4 24 -13 40 -19 17 -6 55 -20 85 -32 30 -12 64 -23 75 -25 20 -3 175 -64 320
-127 39 -17 95 -39 125 -51 30 -11 84 -35 120 -54 36 -18 69 -33 74 -33 5 0
57 -23 115 -51 58 -28 122 -58 141 -67 19 -9 47 -25 62 -35 15 -10 42 -23 60
-29 18 -6 61 -28 95 -49 35 -21 72 -40 83 -44 11 -4 50 -24 86 -46 36 -22 76
-44 90 -49 14 -6 40 -21 57 -34 18 -13 59 -38 92 -56 33 -17 74 -41 92 -53 18
-12 73 -47 123 -77 50 -30 114 -72 143 -92 28 -21 54 -38 58 -38 3 0 39 -25
80 -55 41 -30 78 -55 82 -55 5 0 30 -18 56 -40 26 -22 51 -40 55 -40 5 0 23
-12 41 -27 18 -16 58 -46 90 -68 32 -22 67 -50 78 -62 11 -13 26 -23 32 -23 6
0 29 -16 51 -36 21 -20 50 -44 64 -53 14 -9 36 -26 50 -37 97 -83 157 -132
185 -151 18 -12 41 -32 51 -46 11 -13 32 -32 49 -43 16 -10 45 -36 63 -56 19
-21 37 -38 41 -38 17 0 513 -487 631 -620 30 -34 72 -78 93 -97 20 -20 37 -40
37 -44 0 -5 19 -29 43 -53 64 -67 193 -220 282 -335 22 -29 59 -74 82 -101 23
-27 44 -58 48 -69 3 -12 10 -21 14 -21 7 0 116 -146 162 -217 9 -13 30 -41 45
-60 16 -20 36 -48 44 -63 8 -15 47 -73 85 -130 76 -112 87 -131 154 -242 24
-40 56 -91 71 -113 15 -22 38 -60 50 -85 13 -25 35 -63 50 -85 15 -22 31 -51
35 -65 4 -14 15 -34 24 -45 9 -11 22 -30 29 -42 6 -13 16 -31 22 -40 5 -10 16
-34 25 -53 8 -19 28 -57 45 -85 16 -27 35 -65 41 -84 6 -18 21 -49 34 -67 12
-18 33 -59 46 -91 13 -32 38 -84 56 -116 18 -33 33 -64 33 -70 0 -7 20 -54 45
-105 25 -51 45 -97 45 -101 0 -5 22 -59 50 -120 27 -61 49 -115 50 -119 0 -4
3 -16 6 -27 5 -18 13 -37 55 -130 5 -11 20 -54 33 -95 13 -41 34 -100 46 -130
12 -30 25 -70 30 -88 4 -18 26 -90 49 -160 22 -70 57 -183 76 -252 20 -69 40
-136 45 -150 5 -14 12 -42 15 -64 3 -21 23 -107 45 -190 21 -83 42 -173 45
-201 4 -27 10 -66 15 -85 5 -19 11 -48 14 -65 3 -16 15 -75 27 -130 11 -55 22
-107 24 -115 1 -8 6 -46 9 -85 4 -38 11 -95 16 -125 10 -59 13 -80 30 -205 12
-92 16 -128 25 -205 3 -30 8 -75 10 -100 3 -25 7 -94 10 -155 2 -60 7 -177 11
-260 9 -200 9 -623 0 -815 -4 -85 -9 -200 -11 -255 -5 -107 -14 -233 -19 -262
-2 -10 -7 -47 -11 -83 -3 -36 -8 -76 -10 -90 -2 -14 -7 -50 -10 -80 -4 -30 -9
-64 -11 -75 -3 -11 -6 -36 -9 -55 -3 -19 -7 -46 -10 -60 -2 -14 -7 -50 -10
-81 -6 -75 -13 -118 -35 -224 -16 -80 -18 -87 -33 -160 -9 -38 -18 -87 -21
-108 -4 -22 -13 -70 -22 -109 -9 -39 -17 -75 -19 -82 -1 -6 -5 -18 -8 -26 -4
-13 -15 -55 -33 -125 -2 -11 -7 -35 -10 -53 -3 -19 -23 -93 -45 -165 -22 -73
-42 -149 -46 -170 -3 -20 -10 -40 -14 -43 -5 -3 -9 -14 -9 -26 0 -11 -6 -34
-14 -51 -20 -46 -44 -118 -50 -147 -8 -43 -47 -153 -76 -215 -5 -11 -14 -39
-20 -63 -6 -23 -20 -64 -32 -90 -27 -59 -48 -112 -53 -133 -2 -9 -24 -64 -49
-122 -25 -57 -46 -108 -46 -111 0 -4 -18 -43 -40 -87 -22 -44 -40 -85 -40 -90
0 -9 -108 -241 -132 -284 -6 -11 -29 -56 -51 -100 -22 -44 -43 -82 -47 -85 -4
-3 -27 -43 -52 -90 -74 -140 -118 -219 -149 -268 -16 -25 -29 -51 -29 -58 0
-7 -4 -14 -8 -16 -5 -1 -32 -43 -61 -92 -29 -50 -64 -104 -77 -121 -13 -18
-24 -35 -24 -39 0 -4 -21 -40 -48 -79 -26 -40 -52 -79 -57 -88 -12 -19 -51
-74 -120 -169 -27 -38 -58 -82 -68 -97 -46 -73 -216 -297 -232 -306 -8 -4 -15
-14 -15 -21 0 -8 -20 -35 -45 -62 -25 -26 -45 -51 -45 -56 0 -4 -10 -18 -22
-30 -13 -12 -36 -38 -51 -57 -64 -80 -265 -308 -343 -391 -33 -35 -315 -319
-385 -388 -8 -8 -26 -26 -40 -40 -62 -64 -202 -189 -363 -325 -60 -51 -128
-109 -151 -129 -23 -21 -47 -38 -53 -38 -6 0 -19 -11 -29 -24 -11 -13 -37 -37
-59 -52 -22 -16 -85 -63 -139 -104 -54 -41 -110 -82 -124 -91 -15 -9 -42 -30
-61 -48 -19 -17 -45 -34 -57 -37 -13 -4 -23 -10 -23 -14 0 -7 -16 -19 -105
-75 -17 -11 -54 -37 -82 -58 -28 -20 -53 -37 -57 -37 -7 0 -95 -60 -114 -77
-7 -7 -18 -13 -24 -13 -6 0 -31 -15 -57 -33 -25 -19 -77 -51 -114 -73 -37 -21
-88 -50 -111 -64 -230 -132 -524 -290 -542 -290 -3 0 -18 -8 -32 -18 -15 -10
-56 -31 -92 -47 -36 -15 -100 -45 -144 -66 -43 -22 -82 -39 -87 -39 -5 0 -45
-18 -90 -40 -45 -22 -87 -40 -93 -40 -6 0 -56 -20 -110 -45 -55 -25 -104 -45
-109 -45 -5 0 -59 -20 -121 -44 -61 -25 -131 -50 -156 -56 -25 -7 -51 -17 -57
-22 -7 -6 -13 -7 -13 -3 0 4 -6 3 -12 -3 -14 -11 -122 -50 -153 -55 -23 -4
-210 -64 -240 -77 -11 -5 -36 -12 -57 -14 -20 -3 -56 -12 -80 -20 -79 -26
-233 -68 -260 -72 -15 -2 -92 -20 -170 -39 -169 -43 -159 -41 -228 -50 -30 -4
-86 -14 -125 -22 -38 -8 -81 -17 -95 -19 -14 -2 -47 -9 -75 -14 -120 -24 -149
-29 -232 -35 -37 -3 -79 -8 -93 -10 -14 -2 -47 -7 -75 -11 -27 -3 -58 -8 -67
-9 -9 -2 -48 -7 -85 -10 -37 -4 -75 -9 -84 -10 -9 -2 -52 -6 -95 -10 -43 -4
-92 -9 -109 -11 -205 -25 -1256 -25 -1435 0 -14 2 -62 7 -107 10 -45 4 -90 8
-100 10 -10 2 -48 7 -85 10 -37 4 -77 9 -90 11 -58 9 -179 25 -238 30 -84 8
-153 19 -325 55 -77 15 -165 31 -195 35 -30 3 -71 10 -90 15 -132 34 -280 70
-310 74 -19 3 -82 19 -140 37 -58 17 -132 37 -165 45 -80 19 -321 96 -472 150
-68 24 -130 44 -138 44 -8 0 -23 4 -33 10 -24 13 -132 57 -189 76 -45 15 -67
24 -177 74 -25 11 -50 20 -56 20 -6 0 -47 18 -91 40 -44 22 -84 40 -89 40 -33
0 -724 351 -827 420 -22 16 -51 31 -62 35 -12 3 -45 22 -73 42 -29 19 -73 46
-98 59 -25 14 -59 35 -76 47 -28 20 -93 61 -189 122 -18 11 -72 47 -120 80
-48 33 -109 75 -136 92 -26 18 -59 43 -73 56 -13 12 -37 29 -52 37 -15 8 -39
25 -52 37 -14 13 -48 38 -76 57 -28 19 -60 44 -70 55 -11 12 -37 32 -58 43
-21 12 -38 25 -38 29 0 5 -21 23 -47 41 -27 18 -55 40 -63 49 -8 8 -40 36 -70
60 -74 60 -98 80 -214 183 -109 97 -132 117 -278 258 -54 51 -103 98 -110 104
-7 7 -27 27 -45 45 -17 19 -36 39 -42 44 -15 14 -110 114 -206 217 -84 90
-103 112 -194 218 -30 36 -60 70 -66 76 -44 49 -113 132 -126 153 -9 14 -31
39 -48 55 -17 17 -31 35 -31 42 0 6 -8 18 -17 25 -9 8 -56 68 -105 134 -49 66
-97 129 -107 140 -9 11 -28 38 -41 60 -13 22 -29 45 -35 50 -11 10 -110 154
-150 219 -38 62 -117 181 -136 206 -11 14 -27 40 -35 59 -9 19 -34 61 -55 93
-22 31 -44 69 -49 83 -6 15 -21 41 -34 58 -13 18 -38 61 -56 97 -17 36 -37 72
-45 80 -7 8 -23 38 -36 65 -12 28 -32 64 -44 80 -18 26 -122 232 -200 400 -89
190 -115 248 -115 256 0 4 -11 32 -24 61 -50 111 -64 144 -76 183 -7 22 -23
63 -36 90 -12 28 -30 75 -39 105 -16 53 -34 101 -60 165 -12 29 -38 109 -48
150 -3 11 -21 66 -41 123 -20 57 -38 118 -41 135 -3 18 -10 43 -15 57 -26 72
-62 199 -74 258 -7 37 -30 132 -50 212 -30 120 -82 361 -101 470 -2 14 -9 50
-15 80 -6 30 -13 82 -16 115 -3 33 -7 71 -10 85 -9 49 -37 247 -49 345 -4 28
-8 60 -10 71 -5 32 -16 179 -20 259 -1 39 -7 142 -11 230 -11 200 -11 729 -1
935 4 85 9 198 12 250 5 96 13 204 20 250 7 51 15 116 20 165 3 28 8 61 10 75
8 53 18 116 21 135 5 26 12 79 19 145 7 65 27 175 57 310 15 69 12 58 22 105
5 22 10 54 11 71 4 30 37 169 69 284 9 30 18 72 21 92 3 21 17 75 32 120 14
46 34 119 45 163 11 44 24 89 28 100 9 20 22 61 26 80 1 6 11 37 23 70 11 33
27 80 34 105 13 39 72 206 121 339 9 24 20 49 24 55 5 6 14 31 21 56 7 25 33
88 57 141 24 53 44 102 44 110 0 8 9 29 20 47 11 18 20 38 20 44 0 6 6 19 14
27 8 9 21 38 31 66 9 27 31 79 50 115 18 36 46 92 61 125 16 33 36 71 46 85 9
14 18 34 20 45 1 11 6 22 9 25 7 5 34 55 70 130 12 25 39 73 60 107 21 35 40
71 44 82 3 11 26 50 50 87 25 38 45 72 45 76 0 5 18 35 40 67 22 32 40 61 40
65 0 3 17 31 38 62 20 31 45 73 56 93 10 20 22 38 25 41 11 7 91 130 91 138 0
4 13 22 30 40 17 18 30 37 30 41 0 7 72 111 108 156 4 6 19 26 32 45 13 19 30
41 37 48 7 7 13 17 13 21 0 4 19 30 43 59 23 28 57 70 74 94 98 129 213 270
287 351 15 18 40 47 54 65 26 34 62 74 133 147 22 22 39 43 39 47 0 10 461
471 569 568 145 132 181 164 246 218 33 28 71 62 85 75 14 13 40 34 59 48 19
13 46 35 60 48 14 13 53 44 86 69 33 25 64 51 68 59 4 7 13 13 20 13 7 0 35
20 64 45 28 25 55 45 61 45 5 0 20 10 34 23 49 44 78 67 85 67 3 0 31 19 62
43 30 23 70 51 87 62 17 11 78 52 134 90 112 76 124 83 257 164 48 29 95 59
103 66 8 7 45 29 82 49 37 20 84 47 104 61 20 14 41 25 46 25 4 0 25 11 46 23
40 26 218 121 317 170 11 6 54 27 95 48 41 20 113 55 160 77 47 22 124 58 173
81 48 22 92 41 97 41 5 0 44 16 87 36 43 20 107 46 143 59 36 13 96 37 133 54
38 17 75 31 83 31 8 0 66 20 128 45 63 25 120 45 127 45 7 0 70 20 139 44 69
25 136 47 150 49 14 3 45 11 70 18 55 15 52 14 70 22 35 13 161 49 187 52 15
2 64 13 108 25 193 52 222 59 260 64 22 3 94 17 160 31 66 15 129 28 140 31
52 11 135 24 185 29 30 4 78 10 105 15 28 5 68 11 90 14 22 3 51 8 65 11 14 3
45 7 70 10 25 3 59 8 75 10 17 2 53 7 80 10 28 3 65 8 82 10 18 3 86 7 150 11
65 3 138 7 163 9 25 2 108 7 185 10 77 4 141 8 143 10 5 5 769 -4 817 -9z"/>
<path d="M14127 20134 c-1 -1 -83 -4 -182 -8 -99 -3 -190 -8 -202 -10 -12 -3
-53 -7 -90 -11 -129 -11 -149 -13 -223 -24 -41 -6 -102 -13 -135 -16 -74 -7
-206 -29 -247 -41 -10 -3 -30 -7 -45 -10 -16 -3 -57 -12 -93 -21 -36 -9 -76
-17 -90 -18 -30 -2 -51 -7 -196 -50 -61 -18 -126 -36 -145 -39 -19 -3 -79 -22
-134 -42 -55 -20 -120 -42 -145 -49 -25 -7 -74 -25 -110 -40 -36 -14 -90 -35
-121 -46 -31 -10 -94 -37 -141 -59 -47 -22 -89 -40 -94 -40 -10 0 -122 -56
-138 -69 -6 -5 -26 -12 -43 -16 -18 -3 -35 -11 -38 -16 -4 -5 -25 -18 -48 -29
-23 -11 -49 -24 -57 -29 -8 -5 -34 -19 -57 -30 -23 -11 -62 -33 -85 -48 -24
-15 -54 -32 -68 -38 -27 -11 -117 -66 -217 -132 -35 -24 -65 -43 -68 -43 -5 0
-107 -71 -115 -80 -3 -3 -26 -18 -52 -33 -27 -15 -48 -31 -48 -36 0 -4 -16
-16 -37 -27 -20 -10 -46 -28 -58 -39 -26 -24 -45 -39 -112 -88 -29 -21 -53
-43 -53 -48 0 -5 -6 -9 -13 -9 -7 0 -37 -22 -67 -49 -30 -27 -73 -65 -95 -84
-121 -105 -413 -390 -508 -498 -26 -30 -66 -74 -88 -99 -35 -39 -90 -105 -140
-167 -8 -10 -39 -50 -68 -88 -29 -39 -66 -85 -82 -103 -16 -18 -29 -37 -29
-43 0 -6 -17 -31 -38 -57 -22 -26 -50 -65 -63 -87 -13 -22 -34 -51 -46 -65
-13 -14 -23 -29 -23 -35 0 -6 -22 -43 -50 -83 -27 -40 -50 -76 -50 -80 0 -4
-15 -30 -34 -57 -18 -28 -42 -68 -53 -90 -11 -22 -30 -58 -43 -80 -12 -22 -42
-76 -65 -120 -23 -44 -49 -93 -58 -110 -9 -16 -17 -36 -17 -43 0 -7 -17 -43
-38 -80 -22 -38 -42 -81 -46 -96 -4 -16 -25 -66 -47 -112 -21 -46 -39 -88 -39
-94 0 -9 -49 -137 -79 -205 -5 -11 -14 -38 -19 -60 -6 -22 -25 -80 -43 -130
-17 -49 -37 -115 -44 -145 -7 -30 -28 -109 -48 -175 -19 -67 -37 -139 -40
-160 -8 -54 -24 -137 -31 -155 -3 -8 -7 -28 -10 -45 -3 -16 -7 -41 -10 -55
-10 -44 -16 -74 -21 -110 -3 -19 -8 -42 -10 -50 -3 -8 -7 -49 -10 -90 -5 -73
-11 -130 -20 -180 -2 -14 -7 -63 -11 -110 -4 -47 -8 -98 -10 -115 -5 -56 -16
-299 -16 -390 -1 -88 10 -405 17 -475 5 -50 15 -143 25 -235 5 -44 12 -111 16
-150 6 -78 33 -227 62 -355 11 -47 23 -106 26 -131 3 -25 22 -102 42 -170 19
-68 41 -151 49 -184 8 -33 28 -98 45 -145 17 -47 38 -109 46 -138 8 -29 23
-72 33 -95 11 -24 23 -55 26 -70 4 -15 11 -30 16 -33 5 -3 9 -15 9 -27 0 -12
20 -64 45 -115 25 -52 45 -98 45 -104 0 -17 211 -440 241 -485 16 -23 29 -46
29 -52 0 -6 21 -43 46 -82 25 -40 48 -79 51 -88 3 -9 14 -25 23 -36 9 -11 38
-55 64 -97 26 -43 53 -84 60 -91 8 -7 21 -28 30 -46 9 -17 25 -40 34 -49 9
-10 30 -38 46 -62 36 -55 99 -137 149 -194 20 -24 37 -47 37 -51 0 -4 19 -29
42 -55 24 -26 63 -72 88 -101 106 -126 363 -390 455 -468 22 -18 69 -58 104
-90 136 -119 223 -191 276 -230 22 -16 52 -40 67 -53 15 -12 58 -45 95 -71 38
-26 88 -62 112 -80 24 -18 58 -41 75 -52 37 -23 129 -83 201 -130 28 -18 66
-41 85 -50 19 -10 41 -23 49 -29 47 -38 640 -336 669 -336 6 0 39 -13 74 -30
63 -29 199 -81 333 -125 167 -56 296 -96 322 -101 15 -3 55 -12 88 -20 33 -9
68 -17 78 -19 10 -2 32 -9 50 -14 46 -15 154 -39 207 -46 25 -3 77 -12 115
-20 58 -12 168 -30 295 -50 62 -9 131 -16 210 -20 47 -3 126 -8 175 -11 129
-10 586 -10 745 0 74 4 171 10 216 12 80 3 213 21 374 50 19 4 44 8 55 10 11
1 31 5 45 9 49 11 76 15 125 21 28 3 111 21 185 41 74 19 164 42 200 49 36 8
110 29 165 48 55 19 120 40 145 46 25 6 54 15 65 20 37 17 130 52 176 66 26 8
82 30 125 50 44 20 87 37 96 39 10 2 59 24 110 48 51 25 121 58 156 73 34 16
62 32 62 36 0 5 6 8 13 8 15 0 143 65 167 85 8 7 32 18 52 24 20 7 38 16 40
20 2 4 35 25 73 46 39 21 91 53 116 72 26 18 50 33 53 33 8 0 152 95 215 142
24 18 49 35 55 38 22 10 116 84 116 92 0 4 7 8 15 8 8 0 37 19 64 43 28 23 76
62 107 87 31 25 66 54 78 65 12 11 49 43 81 70 33 28 67 57 76 65 73 69 109
100 116 100 9 0 257 253 328 335 28 32 66 74 85 94 19 20 44 49 54 65 10 17
32 41 47 54 16 13 29 30 29 37 0 7 7 18 16 26 20 17 174 217 174 227 0 4 17
28 38 54 20 25 45 59 54 74 28 46 42 67 60 88 10 11 21 29 24 40 4 12 19 37
34 56 15 19 38 55 51 80 12 25 28 52 35 60 7 8 28 44 47 80 19 36 49 90 67
120 17 30 33 61 35 70 2 8 22 46 44 85 23 38 41 75 41 80 0 6 20 50 45 97 25
48 45 92 45 99 0 6 18 49 39 94 21 45 42 93 46 106 3 13 26 76 49 139 53 142
133 383 141 430 4 19 18 73 32 120 13 47 26 94 29 105 2 11 8 40 14 65 10 45
55 271 64 323 3 15 10 53 15 85 17 95 20 114 26 192 7 97 15 189 20 220 19
126 26 715 12 890 -14 158 -17 195 -22 230 -3 19 -7 71 -10 115 -3 44 -7 91
-10 105 -2 14 -7 43 -10 65 -3 22 -19 105 -35 185 -15 80 -32 168 -36 195 -4
28 -22 104 -41 170 -18 66 -38 140 -43 165 -21 96 -148 473 -170 505 -4 6 -10
24 -13 41 -3 16 -24 69 -46 118 -23 48 -41 92 -41 98 0 5 -22 55 -50 110 -27
55 -50 104 -50 110 0 5 -17 40 -39 76 -21 37 -42 78 -46 92 -4 14 -16 36 -25
50 -10 14 -35 59 -56 100 -22 41 -47 86 -57 100 -10 14 -39 60 -65 104 -72
119 -82 135 -155 245 -38 55 -72 101 -77 101 -4 0 -10 10 -14 23 -3 12 -18 35
-33 51 -15 17 -41 49 -58 73 -39 55 -116 153 -180 227 -121 143 -181 207 -342
368 -84 84 -178 176 -208 203 -31 28 -72 67 -92 88 -20 20 -41 37 -46 37 -6 0
-34 21 -62 48 -29 26 -59 52 -67 58 -147 116 -195 153 -225 170 -19 12 -38 26
-42 31 -8 12 -191 137 -229 157 -17 9 -43 27 -58 41 -14 13 -36 27 -47 31 -12
4 -55 29 -96 55 -41 27 -78 49 -83 49 -4 0 -38 20 -76 44 -38 24 -78 47 -91
51 -12 4 -53 24 -91 46 -38 21 -72 39 -76 39 -4 0 -47 21 -97 46 -49 25 -98
47 -107 49 -9 2 -49 19 -88 38 -39 19 -81 38 -94 42 -13 4 -72 26 -133 50
-143 55 -344 123 -420 141 -33 8 -103 28 -155 44 -52 16 -131 36 -175 44 -44
8 -111 22 -150 31 -118 28 -245 52 -325 60 -30 3 -104 12 -165 20 -112 14
-204 24 -285 30 -108 9 -478 23 -483 19z"/>
</g>
</svg>
