<svg id="レイヤー_1" data-name="レイヤー 1" xmlns="http://www.w3.org/2000/svg" viewBox="0 0 163.03 38.87"><defs><style>.cls-1{fill:none;}.cls-2{fill:#cf1619;}.cls-3{fill:#1d1d1b;}</style></defs><title>2018_gmark</title><polygon class="cls-1" points="172.62 48.55 -9.71 48.55 -9.71 -9.72 172.62 -9.72 172.62 48.55 172.62 48.55"/><path class="cls-2" d="M0,19.43,19.44,0A19.43,19.43,0,0,0,0,19.43"/><path class="cls-2" d="M19.44,38.87,0,19.43A19.44,19.44,0,0,0,19.44,38.87"/><path class="cls-2" d="M9.72,19.43l9.72,9.72,9.72-9.72L26.72,17l-4.85,4.85L17,17l9.71-9.72L38.87,19.43A19.43,19.43,0,0,0,19.44,0l4.85,4.86Z"/><path class="cls-2" d="M19.44,38.87A19.43,19.43,0,0,0,38.87,19.43Z"/><path class="cls-3" d="M91.67,11.68C91.44,12.31,91,13,89.42,13H88.35V3.79h1.07c1.56,0,2,.7,2.25,1.32a10.55,10.55,0,0,1,.24,3.29,10.55,10.55,0,0,1-.24,3.29M89.54,1.43h-3.7V15.35h3.7c2.18,0,3.57-.74,4.22-2.15.53-1.17.66-2,.66-4.81s-.13-3.63-.66-4.8c-.65-1.42-2-2.16-4.22-2.16M79.79,12a1.89,1.89,0,0,1-3.63,0c-.07-.46-.07-1.81-.07-3.64s0-3.17.07-3.63a1.89,1.89,0,0,1,3.63,0c.07.46.07,1.81.07,3.63s0,3.18-.07,3.64M78,1c-2.92,0-4.1,1.73-4.36,3.38a35.46,35.46,0,0,0-.12,4,35.66,35.66,0,0,0,.12,4c.26,1.65,1.44,3.37,4.36,3.37s4.09-1.72,4.35-3.37a35.66,35.66,0,0,0,.12-4,35.46,35.46,0,0,0-.12-4C82.07,2.7,80.89,1,78,1M67.64,12A1.88,1.88,0,0,1,64,12C64,11.57,64,10.23,64,8.4s0-3.17.07-3.64a1.88,1.88,0,0,1,3.62,0c.08.47.08,1.81.08,3.64s0,3.17-.08,3.64M65.83,1c-2.91,0-4.09,1.73-4.35,3.38a35.37,35.37,0,0,0-.12,4,35.66,35.66,0,0,0,.12,4c.26,1.64,1.44,3.37,4.35,3.37s4.1-1.73,4.36-3.37a35.66,35.66,0,0,0,.12-4,35.37,35.37,0,0,0-.12-4C69.93,2.71,68.75,1,65.83,1m-12,9.14H55.6c0,.91,0,1.6-.05,1.92a1.51,1.51,0,0,1-1.73,1.36A1.58,1.58,0,0,1,52.07,12C52,11.57,52,10.23,52,8.4s0-3.17.08-3.64a1.72,1.72,0,0,1,3.37,0c0,.2.05.7.07,1.13H58a11.56,11.56,0,0,0-.08-1.54A3.77,3.77,0,0,0,53.81,1c-2.92,0-4,1.73-4.28,3.38a33.15,33.15,0,0,0-.12,4,33.42,33.42,0,0,0,.12,4,3.88,3.88,0,0,0,4.08,3.37,3.08,3.08,0,0,0,2.76-1.41l.35.95h1.34V7.92H53.83Zm92.6,0h1.77a17,17,0,0,1-.06,1.92,1.49,1.49,0,0,1-1.72,1.36A1.58,1.58,0,0,1,144.67,12c-.07-.46-.08-1.81-.08-3.64s0-3.17.08-3.64a1.72,1.72,0,0,1,3.37,0c0,.2.05.7.06,1.13h2.52a11.56,11.56,0,0,0-.08-1.54A3.78,3.78,0,0,0,146.41,1c-2.92,0-4,1.73-4.28,3.38a33.15,33.15,0,0,0-.12,4,33.42,33.42,0,0,0,.12,4,3.88,3.88,0,0,0,4.08,3.37A3.08,3.08,0,0,0,149,14.41l.35.95h1.34V10.12h0V7.92h-4.24Zm-30.05-.61h4.21V7.16h-4.21V3.79h4.76V1.43h-7.28V15.35h7.44V13h-4.92ZM136,15.35h2.59V1.43H136ZM160.6,1.43v8.82l-3.46-8.82h-2.95V15.35h2.43V5.8l3.82,9.55H163V1.43ZM107.82,11.68c-.23.63-.68,1.33-2.24,1.33h-1.07V3.79h1.07c1.56,0,2,.7,2.24,1.32a10.55,10.55,0,0,1,.24,3.29,10.51,10.51,0,0,1-.24,3.29M105.7,1.43H102V15.35h3.71c2.18,0,3.57-.74,4.21-2.15.54-1.17.67-2,.67-4.81s-.13-3.63-.67-4.8c-.64-1.42-2-2.16-4.21-2.16m21,3.37a1.5,1.5,0,0,1,1.68-1.5,1.71,1.71,0,0,1,1.77,1.91h2.42A4,4,0,0,0,128.4,1c-2.13,0-4.23,1.31-4.23,3.83,0,4,6,4.17,6,7a1.66,1.66,0,0,1-1.86,1.64,2.11,2.11,0,0,1-2.09-2.17h-2.47a4.39,4.39,0,0,0,4.56,4.55c2.15,0,4.4-1.15,4.4-4,0-4.33-6-4.59-6-7M52.42,32.54l1.41-6,1.4,6Zm-.26-9L48.68,37.43h2.59l.62-2.63h3.87l.62,2.63H59L55.49,23.51Zm27.11,9,1.41-6,1.41,6Zm-.25-9L75.54,37.43h2.59l.61-2.63h3.88l.62,2.63h2.59L82.35,23.51Zm13.85,6.33H91.14v-4h1.73c1.39,0,1.92.7,1.92,2s-.53,2-1.92,2m4.52-2c0-2.78-1.53-4.31-4.4-4.31H88.55V37.43h2.59v-5.3h1.72l2.06,5.3H97.7l-2.33-5.79a3.87,3.87,0,0,0,2-3.82m9.12,5.94c-.23.63-.68,1.33-2.24,1.33H103.2V25.86h1.07c1.56,0,2,.7,2.24,1.33a10.55,10.55,0,0,1,.24,3.29,10.55,10.55,0,0,1-.24,3.29m2.09-8.1c-.64-1.41-2-2.15-4.21-2.15h-3.71V37.43h3.71c2.18,0,3.57-.74,4.21-2.15.54-1.17.67-2.06.67-4.81s-.13-3.64-.67-4.81M70.1,33l-1.49-9.48H65.9L64.41,33l-1.67-9.48H60.26l2.65,13.92h2.83l1.52-9.69,1.36,9.69h2.85l2.78-13.92h-2.5Zm63.15,1A1.64,1.64,0,0,1,130,34c-.07-.46-.08-1.66-.08-3.49s0-3,.08-3.49a1.64,1.64,0,0,1,3.23,0c.07.46.07,1.66.07,3.49s0,3-.07,3.49m-1.62-10.77a3.72,3.72,0,0,0-4.08,3.38,32.75,32.75,0,0,0-.12,3.9,32.75,32.75,0,0,0,.12,3.9,4.16,4.16,0,0,0,8.17,0,33.29,33.29,0,0,0,.11-3.9,33.29,33.29,0,0,0-.11-3.9,3.73,3.73,0,0,0-4.09-3.38M124.72,27c0-2.81-2.27-3.85-4.14-3.81s-4,1.12-4,4.46H119c0-1.47.64-2.08,1.58-2.12a1.46,1.46,0,0,1,1.63,1.56c0,1.31-1.45,2.87-5.55,8.08v2.28h7.83V35.1h-4.74c1.8-2.3,3.23-4.1,4.13-5.52a4.74,4.74,0,0,0,.82-2.58m13.88-1.58v1.89h1.75V37.46h2.51V23.51h-2a2.21,2.21,0,0,1-2.25,1.91m16.37,7A3.16,3.16,0,0,0,153.28,30a3.47,3.47,0,0,0,1.41-2.34,4.64,4.64,0,0,0,0-1.29,4,4,0,0,0-7.89,0,4.64,4.64,0,0,0,0,1.29A3.47,3.47,0,0,0,148.21,30a3.17,3.17,0,0,0-1.7,2.36,7.22,7.22,0,0,0,0,2,4.34,4.34,0,0,0,8.46,0A6.51,6.51,0,0,0,155,32.4Zm-5.7-5.51a1.48,1.48,0,0,1,2.95,0,3.64,3.64,0,0,1,0,.66c-.14.94-.61,1.43-1.48,1.43s-1.33-.49-1.47-1.43A3.64,3.64,0,0,1,149.27,26.89ZM152.51,34A1.8,1.8,0,0,1,149,34a5.06,5.06,0,0,1,0-1.23,1.79,1.79,0,0,1,3.53,0A5.06,5.06,0,0,1,152.51,34Z"/></svg>