<svg id="Layer_1" data-name="Layer 1" xmlns="http://www.w3.org/2000/svg" viewBox="0 0 100 100"><defs><style>.cls-1{fill:#e83383;}.cls-2{fill:#f32d83;}</style></defs><title>Artboard 38 copy 5</title><path class="cls-1" d="M50,8A42,42,0,1,1,8,50,42,42,0,0,1,50,8m0-8a50,50,0,1,0,50,50A50,50,0,0,0,50,0Z"/><path class="cls-2" d="M47.55,56.68C45.43,59.83,41.52,61,38,61a10.7,10.7,0,0,1-11-11A10.59,10.59,0,0,1,38,39c6,0,10.76,4.46,10.76,11.07,0,.54,0,1.4-.09,1.94H33.24c.31,2.43,3,3.51,5.17,3.51a5.8,5.8,0,0,0,4.59-2Zm-5.13-8.55A4.27,4.27,0,0,0,38,44.53a4.6,4.6,0,0,0-4.68,3.6Z"/><path class="cls-2" d="M59.25,60.51H53v-21h6.26v3.06A7,7,0,0,1,65.32,39C70.05,39,73,42,73,48V60.51H66.76V49.3c0-2.79-1.53-4.18-3.64-4.18s-3.87,1.08-3.87,4.27Z"/></svg>