<svg xmlns="http://www.w3.org/2000/svg" viewBox="0 0 121.64 121.64"><defs><style>.cls-1{fill:#f32d83;}</style></defs><title>Asset 2</title><g id="Layer_2" data-name="Layer 2"><g id="Layer_1-2" data-name="Layer 1"><path class="cls-1" d="M60.82,0a60.82,60.82,0,1,0,60.82,60.82A60.82,60.82,0,0,0,60.82,0Zm28,85.73a3.09,3.09,0,0,1-3.09,3.09H71.46V67.13h7.28l1.09-8.45H71.46v-5.4c0-2.45.68-4.11,4.19-4.11h4.48V41.61a59.89,59.89,0,0,0-6.52-.33c-6.45,0-10.87,3.94-10.87,11.17v6.23h-7.3v8.45h7.3V88.82H35.91a3.09,3.09,0,0,1-3.09-3.09V35.91a3.09,3.09,0,0,1,3.09-3.09H85.73a3.09,3.09,0,0,1,3.09,3.09Z"/></g></g></svg>