<svg xmlns="http://www.w3.org/2000/svg" viewBox="0 0 121.64 121.64"><defs><style>.cls-1{fill:#f32d83;}</style></defs><title>Asset 3</title><g id="Layer_2" data-name="Layer 2"><g id="Layer_1-2" data-name="Layer 1"><path class="cls-1" d="M85.77,41.95a10.6,10.6,0,0,0-6.07-6.07,17.71,17.71,0,0,0-5.94-1.1c-3.37-.15-4.39-.19-12.93-.19s-9.56,0-12.93.19a17.71,17.71,0,0,0-5.94,1.1,10.6,10.6,0,0,0-6.07,6.07,17.71,17.71,0,0,0-1.1,5.94c-.15,3.37-.19,4.39-.19,12.93s0,9.56.19,12.93a17.71,17.71,0,0,0,1.1,5.94,10.6,10.6,0,0,0,6.07,6.07,17.71,17.71,0,0,0,5.94,1.1c3.37.15,4.39.19,12.93.19s9.56,0,12.93-.19a17.71,17.71,0,0,0,5.94-1.1,10.6,10.6,0,0,0,6.07-6.07,17.71,17.71,0,0,0,1.1-5.94c.15-3.37.19-4.39.19-12.93s0-9.56-.19-12.93A17.71,17.71,0,0,0,85.77,41.95ZM60.82,77.25A16.43,16.43,0,1,1,77.25,60.82,16.43,16.43,0,0,1,60.82,77.25ZM77.9,47.58a3.84,3.84,0,1,1,3.84-3.84A3.84,3.84,0,0,1,77.9,47.58Z"/><circle class="cls-1" cx="60.82" cy="60.82" r="10.67"/><path class="cls-1" d="M60.82,0a60.82,60.82,0,1,0,60.82,60.82A60.82,60.82,0,0,0,60.82,0ZM92.63,74a23.49,23.49,0,0,1-1.49,7.77,16.36,16.36,0,0,1-9.36,9.36A23.49,23.49,0,0,1,74,92.63c-3.41.16-4.5.19-13.19.19s-9.78,0-13.19-.19a23.49,23.49,0,0,1-7.77-1.49,16.36,16.36,0,0,1-9.36-9.36A23.49,23.49,0,0,1,29,74c-.16-3.41-.19-4.5-.19-13.19s0-9.78.19-13.19a23.49,23.49,0,0,1,1.49-7.77,16.36,16.36,0,0,1,9.36-9.36A23.49,23.49,0,0,1,47.63,29c3.41-.16,4.5-.19,13.19-.19s9.78,0,13.19.19a23.49,23.49,0,0,1,7.77,1.49,16.36,16.36,0,0,1,9.36,9.36,23.49,23.49,0,0,1,1.49,7.77c.16,3.41.19,4.5.19,13.19S92.78,70.6,92.63,74Z"/></g></g></svg>