<svg id="Layer_1" data-name="Layer 1" xmlns="http://www.w3.org/2000/svg" viewBox="0 0 100 100"><defs><style>.cls-1{fill:#e83383;}.cls-2{fill:#f32d83;}</style></defs><title>Artboard 38 copy 4</title><path class="cls-1" d="M50,8A42,42,0,1,1,8,50,42,42,0,0,1,50,8m0-8a50,50,0,1,0,50,50A50,50,0,0,0,50,0Z"/><path class="cls-2" d="M31.45,65.41H34.2c2.29,0,2.79-1.85,2.74-3.33V39.49h6.3V61.94c0,5.58-2,9.14-8,9.14H31.45Zm8.64-37.35A3.71,3.71,0,0,1,44,31.7a3.75,3.75,0,0,1-3.87,3.69,3.82,3.82,0,0,1-3.91-3.69A3.77,3.77,0,0,1,40.09,28.06Z"/><path class="cls-2" d="M55.21,39.49V42.1c1-1.94,3.56-3.06,6.17-3.06,5.4,0,10.17,4.27,10.17,10.89S66.78,61,61.38,61c-2.61,0-5.13-1.08-6.17-3V70.81H49V39.49Zm5,15.57a5,5,0,0,0,0-10.08,4.89,4.89,0,0,0-4.86,5.08A4.76,4.76,0,0,0,60.21,55.06Z"/></svg>